# xmcd
#
# Track frame offsets: 
#        183
#        11998
#        25625
#        42230
#        56808
#        72335
#        82963
#        95800
#        110863
#        122228
#
# Disc length: 1811 seconds
#
# Revision: 0
# Processed by: cddbd v1.5.2PL0 Copyright (c) Steve Scherf et al.
# Submitted via: ExactAudioCopy v0.99pb3
#
DISCID=8c07110a
DTITLE=Z. Z Hill - Faithful and True
DYEAR=1991
DGENRE=Blues
TTITLE0=Faithful And True
TTITLE1=Early In The Morning
TTITLE2=Second Chance
TTITLE3=Hold Back
TTITLE4=Ain't No Use
TTITLE5=I Think I'd Do It
TTITLE6=Our Love Is Getting Better
TTITLE7=A Man Need A Woman
TTITLE8=Ha Ha (Laughing Song)
TTITLE9=Chokin' Kind
EXTD=
EXTT0=
EXTT1=
EXTT2=
EXTT3=
EXTT4=
EXTT5=
EXTT6=
EXTT7=
EXTT8=
EXTT9=
PLAYORDER=
